@startuml

skinparam {
    Style strictuml
    RoundCorner 5
    ' use characters instead of icons for showing visibility
    ClassAttributeIconSize 0
    Database {
	' the default border no longer matches the normal colours (bug?), so fix this
	BorderColor #A80036
    }
    Sequence {
	' make activations yellow too
	LifeLineBackgroundColor #FDFDCD

	' make stereotypes less ugly
	Stereotype {
		Font {
			Size 11
			Style plain
		}
	}
    }
}
 
class "Workflow" as workflow {
    -name: string;
    -manualTasks: number;
    -arn: string;
    -definition: string;
    -queueUrl: string;
  --
}

class "Execution" as execution {
    -name: string;
    -arn: string;
    -status: string;
    -output: string;
    -queueUrl: string;
    -manualTasksLeft: number;
  --
}

class "Task" as task {
    -name: string;
    -assignedTo: string;
    -due: string;
    -dependentOn: string;
    -input: string;
    -message: string;
    -ReceiptHandle: string;
}

workflow --> task : tasks
execution --> workflow : workflow

@enduml
