@startuml
skinparam Style StrictUML
skinparam LineType ortho
skinparam monochrome true

entity Customer{
    * customer_id
--
    * username
    * password
    * contact_num
    * email_Address
    * name
    * card_details ??(together with customer or a new entity*)?
}

entity Company{
    * company_id
--
    * name
    * type (msuic, game, entertainment)
    logo
}

entity Account{
    * account_id
--
    * customer_id
    * company_id
    * start_date
    * end_date
}

entity Bill{
    * bill_id
--
    * account_id
    * amount
    * date
    comments
}

entity Users{
    * name
    * account_id
    notes
}


Customer ||..|{ Account
Account }|..|| Company
Account ||..|{ Bill
Account ||.|{ Users
@enduml
